<svg width="600" height="360" viewBox="0 0 600 360" fill="none" xmlns="http://www.w3.org/2000/svg" role="img" aria-labelledby="title desc">
  <title id="title">Established payment rails</title>
  <desc id="desc">Payment channels from cards, wallets, and stablecoins flowing into a Tiance settlement hub.</desc>
  <rect x="44" y="32" width="512" height="296" rx="32" fill="#F9F9F7"/>
  <rect x="242" y="104" width="116" height="116" rx="34" fill="#202020"/>
  <circle cx="300" cy="162" r="34" fill="#C8FB9D"/>
  <path d="M286 184L294 145H318L313 160H329L321 184H286Z" fill="#202020"/>
  <path d="M171 117C206 109 230 122 252 143" stroke="#C8FB9D" stroke-width="10" stroke-linecap="round"/>
  <path d="M428 117C391 109 369 122 348 143" stroke="#C8FB9D" stroke-width="10" stroke-linecap="round"/>
  <path d="M172 232C207 242 232 221 253 190" stroke="#C8FB9D" stroke-width="10" stroke-linecap="round"/>
  <path d="M428 232C391 242 367 221 347 190" stroke="#C8FB9D" stroke-width="10" stroke-linecap="round"/>
  <rect x="84" y="78" width="136" height="72" rx="22" fill="white"/>
  <circle cx="121" cy="114" r="16" fill="#EB001B" fill-opacity=".72"/>
  <circle cx="140" cy="114" r="16" fill="#F79E1B" fill-opacity=".72"/>
  <text x="166" y="119" fill="#222" font-family="Inter, Arial, sans-serif" font-size="17" font-weight="700">Card</text>
  <rect x="380" y="78" width="136" height="72" rx="22" fill="white"/>
  <rect x="412" y="96" width="40" height="36" rx="11" fill="#1DA1F2"/>
  <path d="M423 115L442 105L436 126L430 120L423 126V115Z" fill="white"/>
  <text x="462" y="119" fill="#222" font-family="Inter, Arial, sans-serif" font-size="17" font-weight="700">Chat</text>
  <rect x="84" y="208" width="136" height="72" rx="22" fill="white"/>
  <circle cx="124" cy="244" r="18" fill="#2FBF69"/>
  <circle cx="145" cy="244" r="14" fill="#8FE35E"/>
  <text x="169" y="249" fill="#222" font-family="Inter, Arial, sans-serif" font-size="17" font-weight="700">Wallet</text>
  <rect x="380" y="208" width="136" height="72" rx="22" fill="white"/>
  <path d="M426 225L454 237V255L426 267L398 255V237L426 225Z" fill="#26A17B"/>
  <path d="M414 240H438M426 240V260" stroke="white" stroke-width="4" stroke-linecap="round"/>
  <text x="462" y="249" fill="#222" font-family="Inter, Arial, sans-serif" font-size="17" font-weight="700">USDT</text>
  <rect x="158" y="292" width="284" height="38" rx="19" fill="#ECFCE0"/>
  <circle cx="181" cy="311" r="7" fill="#35A853"/>
  <text x="198" y="316" fill="#2D5F35" font-family="Inter, Arial, sans-serif" font-size="14" font-weight="700">Live channels with real volume</text>
  <rect x="263" y="226" width="74" height="54" rx="18" fill="white"/>
  <path d="M282 260L295 247L307 255L322 236" stroke="#202020" stroke-width="5" stroke-linecap="round" stroke-linejoin="round"/>
</svg>
